<?xml version="1.0" encoding="UTF-8"?>
<svg width="800px" height="800px" viewBox="0 0 800 800" version="1.1" xmlns="http://www.w3.org/2000/svg">
    <g stroke="none" stroke-width="1" fill="none" fill-rule="evenodd">
        <path d="M400,720 C210,720 80,580 80,400 C80,220 210,80 400,80 C590,80 720,220 720,400 C720,580 590,720 400,720 Z" fill="#00FF00" fill-opacity="0.1"/>
        <path d="M400,680 C570,680 680,570 680,400 C680,230 570,120 400,120 C230,120 120,230 120,400 C120,570 230,680 400,680 Z" stroke="#00FF00" stroke-width="8"/>
        <!-- Dolphin Body -->
        <path d="M350,300 C450,250 500,350 480,400 C460,450 400,480 350,460 C300,440 250,380 280,340 C310,300 350,300 350,300 Z" fill="#00FF00"/>
        <!-- Dolphin Tail -->
        <path d="M280,340 C260,360 240,380 220,360 C200,340 220,320 240,340 C260,360 280,340 280,340 Z" fill="#00FF00"/>
        <!-- Dolphin Eye -->
        <circle cx="380" cy="350" r="10" fill="#000000"/>
        <!-- Playful Smile -->
        <path d="M360,370 C380,390 400,390 420,370" stroke="#000000" stroke-width="4" stroke-linecap="round"/>
    </g>
</svg>
